<svg width="763" height="144" viewBox="0 0 763 144" fill="none" xmlns="http://www.w3.org/2000/svg">
<path d="M71.6 143L69.8391 143.948L70.4054 145H71.6V143ZM43.6 91L45.3609 90.0518L44.7946 89H43.6V91ZM39.4 91V89H37.4V91H39.4ZM39.4 143V145H41.4V143H39.4ZM0.2 143H-1.8V145H0.2V143ZM0.2 1.99999V-8.58307e-06H-1.8V1.99999H0.2ZM90.8 8L89.8935 9.78277L89.9056 9.78891L89.9178 9.7949L90.8 8ZM108.6 24.2L106.868 25.1994L106.872 25.2068L106.876 25.214L108.6 24.2ZM106.6 72.6L104.983 71.4236L104.979 71.429L106.6 72.6ZM83.6 88L83.0207 86.0857L80.6056 86.8166L81.8686 89.0011L83.6 88ZM115.4 143V145H118.867L117.131 141.999L115.4 143ZM39.4 64.2H37.4V66.2H39.4V64.2ZM70.8 60.4L69.4225 58.95L69.4225 58.95L70.8 60.4ZM70.6 38.8L69.1858 40.2142L69.2211 40.2495L69.2582 40.2831L70.6 38.8ZM39.4 34.8V32.8H37.4V34.8H39.4ZM73.3609 142.052L45.3609 90.0518L41.8391 91.9482L69.8391 143.948L73.3609 142.052ZM43.6 89H39.4V93H43.6V89ZM37.4 91V143H41.4V91H37.4ZM39.4 141H0.2V145H39.4V141ZM2.2 143V1.99999H-1.8V143H2.2ZM0.2 3.99999H62V-8.58307e-06H0.2V3.99999ZM62 3.99999C73.1051 3.99999 82.376 5.9603 89.8935 9.78277L91.7065 6.21723C83.4907 2.03969 73.5616 -8.58307e-06 62 -8.58307e-06V3.99999ZM89.9178 9.7949C97.4638 13.5039 103.085 18.6423 106.868 25.1994L110.332 23.2005C106.115 15.891 99.8696 10.2294 91.6822 6.2051L89.9178 9.7949ZM106.876 25.214C110.681 31.6817 112.6 38.9931 112.6 47.2H116.6C116.6 38.3402 114.519 30.3182 110.324 23.186L106.876 25.214ZM112.6 47.2C112.6 56.4037 110.052 64.4529 104.983 71.4237L108.217 73.7763C113.814 66.0804 116.6 57.1963 116.6 47.2H112.6ZM104.979 71.429C100.082 78.2093 92.8178 83.1208 83.0207 86.0857L84.1793 89.9143C94.6489 86.7458 102.718 81.3907 108.221 73.771L104.979 71.429ZM81.8686 89.0011L113.669 144.001L117.131 141.999L85.3314 86.9989L81.8686 89.0011ZM115.4 141H71.6V145H115.4V141ZM39.4 66.2H58.8V62.2H39.4V66.2ZM58.8 66.2C64.4168 66.2 69.0008 64.8678 72.1775 61.85L69.4225 58.95C67.2658 60.9988 63.8499 62.2 58.8 62.2V66.2ZM72.1775 61.85C75.3531 58.8332 76.8 54.5727 76.8 49.4H72.8C72.8 53.8272 71.5803 56.9001 69.4225 58.95L72.1775 61.85ZM76.8 49.4C76.8 44.4248 75.2444 40.3049 71.9418 37.3169L69.2582 40.2831C71.5556 42.3617 72.8 45.3085 72.8 49.4H76.8ZM72.0142 37.3858C68.8488 34.2204 64.3253 32.8 58.8 32.8V36.8C63.6747 36.8 67.0179 38.0463 69.1858 40.2142L72.0142 37.3858ZM58.8 32.8H39.4V36.8H58.8V32.8ZM37.4 34.8V64.2H41.4V34.8H37.4ZM171.627 33.4V31.4H169.627V33.4H171.627ZM171.627 56.4H169.627V58.4H171.627V56.4ZM216.627 56.4H218.627V54.4H216.627V56.4ZM216.627 86.2V88.2H218.627V86.2H216.627ZM171.627 86.2V84.2H169.627V86.2H171.627ZM171.627 111.6H169.627V113.6H171.627V111.6ZM222.627 111.6H224.627V109.6H222.627V111.6ZM222.627 143V145H224.627V143H222.627ZM132.427 143H130.427V145H132.427V143ZM132.427 1.99999V-8.58307e-06H130.427V1.99999H132.427ZM222.627 1.99999H224.627V-8.58307e-06H222.627V1.99999ZM222.627 33.4V35.4H224.627V33.4H222.627ZM169.627 33.4V56.4H173.627V33.4H169.627ZM171.627 58.4H216.627V54.4H171.627V58.4ZM214.627 56.4V86.2H218.627V56.4H214.627ZM216.627 84.2H171.627V88.2H216.627V84.2ZM169.627 86.2V111.6H173.627V86.2H169.627ZM171.627 113.6H222.627V109.6H171.627V113.6ZM220.627 111.6V143H224.627V111.6H220.627ZM222.627 141H132.427V145H222.627V141ZM134.427 143V1.99999H130.427V143H134.427ZM132.427 3.99999H222.627V-8.58307e-06H132.427V3.99999ZM220.627 1.99999V33.4H224.627V1.99999H220.627ZM222.627 31.4H171.627V35.4H222.627V31.4ZM245.797 35.2L244.035 34.2543L244.03 34.2622L245.797 35.2ZM270.597 9.8L271.577 11.5431L271.586 11.5385L271.594 11.5338L270.597 9.8ZM351.797 14.8L350.558 16.3702L350.569 16.3787L351.797 14.8ZM374.997 53V55H377.472L376.952 52.5798L374.997 53ZM332.797 53L330.99 53.8581L331.533 55H332.797V53ZM322.197 40.8L321.123 42.4873L321.134 42.4945L321.146 42.5016L322.197 40.8ZM284.997 46.4L283.463 45.1166L283.46 45.1196L284.997 46.4ZM284.997 98.4L283.448 99.6648L283.462 99.682L283.476 99.699L284.997 98.4ZM322.197 103.8L321.146 102.098L321.134 102.105L321.123 102.113L322.197 103.8ZM332.797 91.6V89.6H331.533L330.99 90.7419L332.797 91.6ZM374.997 91.6L376.952 92.0202L377.472 89.6H374.997V91.6ZM351.797 130L353.025 131.579L353.036 131.57L351.797 130ZM270.597 135L269.6 136.734L269.608 136.739L269.616 136.743L270.597 135ZM245.797 109.6L244.026 110.529L244.032 110.542L244.039 110.555L245.797 109.6ZM239.197 72.2C239.197 58.616 242.003 46.6122 247.563 36.1378L244.03 34.2622C238.124 45.3878 235.197 58.0507 235.197 72.2H239.197ZM247.559 36.1456C253.249 25.5421 261.247 17.3542 271.577 11.5431L269.616 8.05685C258.614 14.2458 250.078 22.9913 244.035 34.2544L247.559 36.1456ZM271.594 11.5338C281.92 5.59615 293.835 2.6 307.397 2.6V-1.4C293.226 -1.4 280.607 1.73718 269.6 8.06619L271.594 11.5338ZM307.397 2.6C324.619 2.6 338.963 7.22312 350.558 16.3702L353.036 13.2298C340.631 3.44354 325.375 -1.4 307.397 -1.4V2.6ZM350.569 16.3787C362.165 25.3979 369.665 37.7043 373.042 53.4202L376.952 52.5798C373.396 36.029 365.429 22.8687 353.025 13.2213L350.569 16.3787ZM374.997 51H332.797V55H374.997V51ZM334.603 52.1419C331.923 46.4995 328.144 42.1224 323.248 39.0984L321.146 42.5016C325.316 45.0775 328.604 48.8339 330.99 53.8581L334.603 52.1419ZM323.271 39.1127C318.511 36.0837 312.995 34.6 306.797 34.6V38.6C312.332 38.6 317.083 39.9163 321.123 42.4873L323.271 39.1127ZM306.797 34.6C297.182 34.6 289.337 38.0967 283.463 45.1166L286.531 47.6834C291.59 41.6366 298.279 38.6 306.797 38.6V34.6ZM283.46 45.1196C277.748 51.9742 274.997 61.073 274.997 72.2H278.997C278.997 61.727 281.579 53.6258 286.533 47.6804L283.46 45.1196ZM274.997 72.2C274.997 83.4558 277.746 92.6801 283.448 99.6648L286.546 97.1352C281.581 91.0532 278.997 82.8109 278.997 72.2H274.997ZM283.476 99.699C289.355 106.581 297.196 110 306.797 110V106C298.264 106 291.572 103.019 286.518 97.101L283.476 99.699ZM306.797 110C312.995 110 318.511 108.516 323.271 105.487L321.123 102.113C317.083 104.684 312.332 106 306.797 106V110ZM323.248 105.502C328.144 102.478 331.923 98.1005 334.603 92.4581L330.99 90.7419C328.604 95.7661 325.316 99.5225 321.146 102.098L323.248 105.502ZM332.797 93.6H374.997V89.6H332.797V93.6ZM373.042 91.1798C369.664 106.897 362.163 119.275 350.558 128.43L353.036 131.57C365.431 121.792 373.396 108.57 376.952 92.0202L373.042 91.1798ZM350.569 128.421C338.974 137.44 324.625 142 307.397 142V146C325.368 146 340.62 141.227 353.025 131.579L350.569 128.421ZM307.397 142C293.827 142 281.907 139.067 271.577 133.257L269.616 136.743C280.62 142.933 293.233 146 307.397 146V142ZM271.594 133.266C261.247 127.317 253.244 119.12 247.554 108.645L244.039 110.555C250.083 121.68 258.613 130.416 269.6 136.734L271.594 133.266ZM247.568 108.671C242.004 98.0608 239.197 85.9203 239.197 72.2H235.197C235.197 86.4797 238.123 99.2725 244.026 110.529L247.568 108.671ZM432.759 33.4V31.4H430.759V33.4H432.759ZM432.759 56.4H430.759V58.4H432.759V56.4ZM477.759 56.4H479.759V54.4H477.759V56.4ZM477.759 86.2V88.2H479.759V86.2H477.759ZM432.759 86.2V84.2H430.759V86.2H432.759ZM432.759 111.6H430.759V113.6H432.759V111.6ZM483.759 111.6H485.759V109.6H483.759V111.6ZM483.759 143V145H485.759V143H483.759ZM393.559 143H391.559V145H393.559V143ZM393.559 1.99999V-8.58307e-06H391.559V1.99999H393.559ZM483.759 1.99999H485.759V-8.58307e-06H483.759V1.99999ZM483.759 33.4V35.4H485.759V33.4H483.759ZM430.759 33.4V56.4H434.759V33.4H430.759ZM432.759 58.4H477.759V54.4H432.759V58.4ZM475.759 56.4V86.2H479.759V56.4H475.759ZM477.759 84.2H432.759V88.2H477.759V84.2ZM430.759 86.2V111.6H434.759V86.2H430.759ZM432.759 113.6H483.759V109.6H432.759V113.6ZM481.759 111.6V143H485.759V111.6H481.759ZM483.759 141H393.559V145H483.759V141ZM395.559 143V1.99999H391.559V143H395.559ZM393.559 3.99999H483.759V-8.58307e-06H393.559V3.99999ZM481.759 1.99999V33.4H485.759V1.99999H481.759ZM483.759 31.4H432.759V35.4H483.759V31.4ZM633.73 143V145H635.73V143H633.73ZM594.53 143L592.862 144.105L593.456 145H594.53V143ZM542.33 64.2L543.997 63.0955L540.33 57.5593V64.2H542.33ZM542.33 143V145H544.33V143H542.33ZM503.13 143H501.13V145H503.13V143ZM503.13 1.99999V-8.58307e-06H501.13V1.99999H503.13ZM542.33 1.99999L544.003 0.905154L543.411 -8.58307e-06H542.33V1.99999ZM594.53 81.8L592.856 82.8948L596.53 88.511V81.8H594.53ZM594.53 1.99999V-8.58307e-06H592.53V1.99999H594.53ZM633.73 1.99999H635.73V-8.58307e-06H633.73V1.99999ZM633.73 141H594.53V145H633.73V141ZM596.197 141.895L543.997 63.0955L540.662 65.3045L592.862 144.105L596.197 141.895ZM540.33 64.2V143H544.33V64.2H540.33ZM542.33 141H503.13V145H542.33V141ZM505.13 143V1.99999H501.13V143H505.13ZM503.13 3.99999H542.33V-8.58307e-06H503.13V3.99999ZM540.656 3.09483L592.856 82.8948L596.203 80.7052L544.003 0.905154L540.656 3.09483ZM596.53 81.8V1.99999H592.53V81.8H596.53ZM594.53 3.99999H633.73V-8.58307e-06H594.53V3.99999ZM631.73 1.99999V143H635.73V1.99999H631.73ZM762.259 1.99999H764.259V-8.58307e-06H762.259V1.99999ZM762.259 33.2V35.2H764.259V33.2H762.259ZM724.659 33.2V31.2H722.659V33.2H724.659ZM724.659 143V145H726.659V143H724.659ZM685.459 143H683.459V145H685.459V143ZM685.459 33.2H687.459V31.2H685.459V33.2ZM648.259 33.2H646.259V35.2H648.259V33.2ZM648.259 1.99999V-8.58307e-06H646.259V1.99999H648.259ZM760.259 1.99999V33.2H764.259V1.99999H760.259ZM762.259 31.2H724.659V35.2H762.259V31.2ZM722.659 33.2V143H726.659V33.2H722.659ZM724.659 141H685.459V145H724.659V141ZM687.459 143V33.2H683.459V143H687.459ZM685.459 31.2H648.259V35.2H685.459V31.2ZM650.259 33.2V1.99999H646.259V33.2H650.259ZM648.259 3.99999H762.259V-8.58307e-06H648.259V3.99999Z" fill="white"/>
</svg>
