<svg width="15" height="31" viewBox="0 0 15 31" fill="none" xmlns="http://www.w3.org/2000/svg">
<rect x="0.75" y="0.75" width="12.7857" height="19.9286" rx="6.39286" stroke="white" stroke-width="1.5"/>
<path d="M6.61249 30.5303C6.90538 30.8232 7.38026 30.8232 7.67315 30.5303L12.4461 25.7574C12.739 25.4645 12.739 24.9896 12.4461 24.6967C12.1532 24.4038 11.6784 24.4038 11.3855 24.6967L7.14282 28.9394L2.90018 24.6967C2.60729 24.4038 2.13241 24.4038 1.83952 24.6967C1.54663 24.9896 1.54663 25.4645 1.83952 25.7574L6.61249 30.5303ZM6.39282 11.4286L6.39282 30L7.89282 30L7.89282 11.4286L6.39282 11.4286Z" fill="white"/>
<rect x="6.12244" y="4.08167" width="2.04082" height="4.08163" rx="1.02041" fill="white"/>
</svg>
